<svg width="701" height="639" viewBox="0 0 701 639" fill="none" xmlns="http://www.w3.org/2000/svg">
	<path fill-rule="evenodd" clip-rule="evenodd" d="M183.455 606.23C128.807 576.697 92.3438 524.58 62.7239 468.48C29.9836 406.471 -13.5946 339.719 5.00863 268.256C23.5421 197.062 96.6438 157.432 155.101 113.623C206.586 75.0389 261.279 47.361 321.671 30.9446C390.255 12.3015 463.786 -15.6039 526.085 12.7785C590.219 41.9973 621.84 113.858 650.004 180.529C678.659 248.363 721.081 326.331 688.17 396.48C655.04 467.098 557.855 465.3 495.349 510.172C445.893 545.677 419.152 612.898 362.334 630.397C301.585 649.107 237.146 635.246 183.455 606.23Z"
		  fill="hsl(23.52deg 94.65% 91.7%)"/>
	</svg>
