<svg width="902" height="886" viewBox="0 0 902 886" fill="none" xmlns="http://www.w3.org/2000/svg">
	<path fill-rule="evenodd" clip-rule="evenodd" d="M638.147 130.672C669.049 157.276 710.886 165.412 746.024 186.098C791.39 212.805 867.749 219.663 877.299 271.46C887.6 327.339 784.109 358.51 788.258 415.184C793.314 484.252 914.967 520.103 900.458 587.832C887.941 646.261 790.165 630.107 736.564 656.492C696.719 676.105 655.307 693.62 623.197 724.311C574.263 771.084 565.349 867.845 499.437 883.147C440.504 896.828 387.17 833.262 346.43 788.562C309.1 747.604 320.013 673.927 276.957 639.042C232.196 602.774 158.32 629.96 110.689 597.555C61.9914 564.423 21.3422 513.143 7.66047 455.827C-5.94337 398.838 -1.45287 329.044 35.7897 283.783C77.4359 233.171 159.189 240.828 214.058 204.993C248.88 182.251 267.413 142.42 297.003 113.185C330.739 79.8539 358.239 37.0318 402.152 19.1565C446.498 1.10535 501.103 -7.95151 544.368 12.4931C590.222 34.1604 599.711 97.5834 638.147 130.672Z" fill="#6254BD"/>
	</svg>
